<?xml version="1.0" encoding="UTF-8" standalone="no" ?><!DOCTYPE svg PUBLIC "-//W3C//DTD SVG 1.1//EN" "http://www.w3.org/Graphics/SVG/1.1/DTD/svg11.dtd"><svg xmlns="http://www.w3.org/2000/svg" xmlns:xlink="http://www.w3.org/1999/xlink" version="1.1" width="1056" height="500" viewBox="0 0 1056 500" xml:space="preserve"><desc>Created with Fabric.js 1.7.19</desc><defs></defs><rect x="0" y="0" width="1056" height="500" fill="#FFFFFF"></rect><g style="stroke: none; stroke-width: 1; stroke-dasharray: none; stroke-linecap: butt; stroke-linejoin: miter; stroke-miterlimit: 10; fill: none; fill-rule: nonzero; opacity: 1" transform="translate(0 0)" ><path d="M 0.5 0.5 L 1055.5 0.5 L 1055.5 499.5 L 0.5 499.5 Z" style="stroke:#000000;stroke-opacity:1; stroke-opacity: 0; stroke-width: 1; stroke-dasharray: none; stroke-linecap: butt; stroke-linejoin: miter; stroke-miterlimit: 10;fill:#FFFFFF;fill-opacity:1; fill-opacity: 0; fill-rule: nonzero; opacity: 1" transform="" stroke-linecap="round" /><path d="M 0.5 0.5 L 903.5 0.5 L 903.5 408.5 L 0.5 408.5 L 0.5 0.5 Z" style="stroke:#000000;stroke-opacity:1; stroke-opacity: 0; stroke-width: 1; stroke-dasharray: none; stroke-linecap: butt; stroke-linejoin: miter; stroke-miterlimit: 10;fill:#FFFFFF;fill-opacity:1; fill-opacity: 0; fill-rule: nonzero; opacity: 1" transform=" matrix(1 0 0 1 82 20) " stroke-linecap="round" /><path d="M 38.5 0.5 L 38.5 5.5" style="stroke:#000000;stroke-opacity:1; stroke-opacity: 0.3; stroke-width: 1; stroke-dasharray: none; stroke-linecap: butt; stroke-linejoin: miter; stroke-miterlimit: 10; fill: none; fill-rule: nonzero; opacity: 1" transform=" matrix(1 0 0 1 82 428) " stroke-linecap="round" /><path d="M 0.5 408.5 L 0.5 408.5 L 0.5 0.5" style="stroke:#000000;stroke-opacity:1; stroke-opacity: 0.1; stroke-width: 1; stroke-dasharray: none; stroke-linecap: butt; stroke-linejoin: miter; stroke-miterlimit: 10; fill: none; fill-rule: nonzero; opacity: 1" transform=" matrix(1 0 0 1 82 20) " stroke-linecap="round" /><path d="M 113.5 0.5 L 113.5 5.5" style="stroke:#000000;stroke-opacity:1; stroke-opacity: 0.3; stroke-width: 1; stroke-dasharray: none; stroke-linecap: butt; stroke-linejoin: miter; stroke-miterlimit: 10; fill: none; fill-rule: nonzero; opacity: 1" transform=" matrix(1 0 0 1 82 428) " stroke-linecap="round" /><path d="M 75.5 408.5 L 75.5 408.5 L 75.5 0.5" style="stroke:#000000;stroke-opacity:1; stroke-opacity: 0.1; stroke-width: 1; stroke-dasharray: none; stroke-linecap: butt; stroke-linejoin: miter; stroke-miterlimit: 10; fill: none; fill-rule: nonzero; opacity: 1" transform=" matrix(1 0 0 1 82 20) " stroke-linecap="round" /><path d="M 188.5 0.5 L 188.5 5.5" style="stroke:#000000;stroke-opacity:1; stroke-opacity: 0.3; stroke-width: 1; stroke-dasharray: none; stroke-linecap: butt; stroke-linejoin: miter; stroke-miterlimit: 10; fill: none; fill-rule: nonzero; opacity: 1" transform=" matrix(1 0 0 1 82 428) " stroke-linecap="round" /><path d="M 150.5 408.5 L 150.5 408.5 L 150.5 0.5" style="stroke:#000000;stroke-opacity:1; stroke-opacity: 0.1; stroke-width: 1; stroke-dasharray: none; stroke-linecap: butt; stroke-linejoin: miter; stroke-miterlimit: 10; fill: none; fill-rule: nonzero; opacity: 1" transform=" matrix(1 0 0 1 82 20) " stroke-linecap="round" /><path d="M 263.5 0.5 L 263.5 5.5" style="stroke:#000000;stroke-opacity:1; stroke-opacity: 0.3; stroke-width: 1; stroke-dasharray: none; stroke-linecap: butt; stroke-linejoin: miter; stroke-miterlimit: 10; fill: none; fill-rule: nonzero; opacity: 1" transform=" matrix(1 0 0 1 82 428) " stroke-linecap="round" /><path d="M 225.5 408.5 L 225.5 408.5 L 225.5 0.5" style="stroke:#000000;stroke-opacity:1; stroke-opacity: 0.1; stroke-width: 1; stroke-dasharray: none; stroke-linecap: butt; stroke-linejoin: miter; stroke-miterlimit: 10; fill: none; fill-rule: nonzero; opacity: 1" transform=" matrix(1 0 0 1 82 20) " stroke-linecap="round" /><path d="M 339.5 0.5 L 339.5 5.5" style="stroke:#000000;stroke-opacity:1; stroke-opacity: 0.3; stroke-width: 1; stroke-dasharray: none; stroke-linecap: butt; stroke-linejoin: miter; stroke-miterlimit: 10; fill: none; fill-rule: nonzero; opacity: 1" transform=" matrix(1 0 0 1 82 428) " stroke-linecap="round" /><path d="M 301.5 408.5 L 301.5 408.5 L 301.5 0.5" style="stroke:#000000;stroke-opacity:1; stroke-opacity: 0.1; stroke-width: 1; stroke-dasharray: none; stroke-linecap: butt; stroke-linejoin: miter; stroke-miterlimit: 10; fill: none; fill-rule: nonzero; opacity: 1" transform=" matrix(1 0 0 1 82 20) " stroke-linecap="round" /><path d="M 414.5 0.5 L 414.5 5.5" style="stroke:#000000;stroke-opacity:1; stroke-opacity: 0.3; stroke-width: 1; stroke-dasharray: none; stroke-linecap: butt; stroke-linejoin: miter; stroke-miterlimit: 10; fill: none; fill-rule: nonzero; opacity: 1" transform=" matrix(1 0 0 1 82 428) " stroke-linecap="round" /><path d="M 376.5 408.5 L 376.5 408.5 L 376.5 0.5" style="stroke:#000000;stroke-opacity:1; stroke-opacity: 0.1; stroke-width: 1; stroke-dasharray: none; stroke-linecap: butt; stroke-linejoin: miter; stroke-miterlimit: 10; fill: none; fill-rule: nonzero; opacity: 1" transform=" matrix(1 0 0 1 82 20) " stroke-linecap="round" /><path d="M 489.5 0.5 L 489.5 5.5" style="stroke:#000000;stroke-opacity:1; stroke-opacity: 0.3; stroke-width: 1; stroke-dasharray: none; stroke-linecap: butt; stroke-linejoin: miter; stroke-miterlimit: 10; fill: none; fill-rule: nonzero; opacity: 1" transform=" matrix(1 0 0 1 82 428) " stroke-linecap="round" /><path d="M 451.5 408.5 L 451.5 408.5 L 451.5 0.5" style="stroke:#000000;stroke-opacity:1; stroke-opacity: 0.1; stroke-width: 1; stroke-dasharray: none; stroke-linecap: butt; stroke-linejoin: miter; stroke-miterlimit: 10; fill: none; fill-rule: nonzero; opacity: 1" transform=" matrix(1 0 0 1 82 20) " stroke-linecap="round" /><path d="M 564.5 0.5 L 564.5 5.5" style="stroke:#000000;stroke-opacity:1; stroke-opacity: 0.3; stroke-width: 1; stroke-dasharray: none; stroke-linecap: butt; stroke-linejoin: miter; stroke-miterlimit: 10; fill: none; fill-rule: nonzero; opacity: 1" transform=" matrix(1 0 0 1 82 428) " stroke-linecap="round" /><path d="M 526.5 408.5 L 526.5 408.5 L 526.5 0.5" style="stroke:#000000;stroke-opacity:1; stroke-opacity: 0.1; stroke-width: 1; stroke-dasharray: none; stroke-linecap: butt; stroke-linejoin: miter; stroke-miterlimit: 10; fill: none; fill-rule: nonzero; opacity: 1" transform=" matrix(1 0 0 1 82 20) " stroke-linecap="round" /><path d="M 640.5 0.5 L 640.5 5.5" style="stroke:#000000;stroke-opacity:1; stroke-opacity: 0.3; stroke-width: 1; stroke-dasharray: none; stroke-linecap: butt; stroke-linejoin: miter; stroke-miterlimit: 10; fill: none; fill-rule: nonzero; opacity: 1" transform=" matrix(1 0 0 1 82 428) " stroke-linecap="round" /><path d="M 602.5 408.5 L 602.5 408.5 L 602.5 0.5" style="stroke:#000000;stroke-opacity:1; stroke-opacity: 0.1; stroke-width: 1; stroke-dasharray: none; stroke-linecap: butt; stroke-linejoin: miter; stroke-miterlimit: 10; fill: none; fill-rule: nonzero; opacity: 1" transform=" matrix(1 0 0 1 82 20) " stroke-linecap="round" /><path d="M 715.5 0.5 L 715.5 5.5" style="stroke:#000000;stroke-opacity:1; stroke-opacity: 0.3; stroke-width: 1; stroke-dasharray: none; stroke-linecap: butt; stroke-linejoin: miter; stroke-miterlimit: 10; fill: none; fill-rule: nonzero; opacity: 1" transform=" matrix(1 0 0 1 82 428) " stroke-linecap="round" /><path d="M 677.5 408.5 L 677.5 408.5 L 677.5 0.5" style="stroke:#000000;stroke-opacity:1; stroke-opacity: 0.1; stroke-width: 1; stroke-dasharray: none; stroke-linecap: butt; stroke-linejoin: miter; stroke-miterlimit: 10; fill: none; fill-rule: nonzero; opacity: 1" transform=" matrix(1 0 0 1 82 20) " stroke-linecap="round" /><path d="M 790.5 0.5 L 790.5 5.5" style="stroke:#000000;stroke-opacity:1; stroke-opacity: 0.3; stroke-width: 1; stroke-dasharray: none; stroke-linecap: butt; stroke-linejoin: miter; stroke-miterlimit: 10; fill: none; fill-rule: nonzero; opacity: 1" transform=" matrix(1 0 0 1 82 428) " stroke-linecap="round" /><path d="M 752.5 408.5 L 752.5 408.5 L 752.5 0.5" style="stroke:#000000;stroke-opacity:1; stroke-opacity: 0.1; stroke-width: 1; stroke-dasharray: none; stroke-linecap: butt; stroke-linejoin: miter; stroke-miterlimit: 10; fill: none; fill-rule: nonzero; opacity: 1" transform=" matrix(1 0 0 1 82 20) " stroke-linecap="round" /><path d="M 865.5 0.5 L 865.5 5.5" style="stroke:#000000;stroke-opacity:1; stroke-opacity: 0.3; stroke-width: 1; stroke-dasharray: none; stroke-linecap: butt; stroke-linejoin: miter; stroke-miterlimit: 10; fill: none; fill-rule: nonzero; opacity: 1" transform=" matrix(1 0 0 1 82 428) " stroke-linecap="round" /><path d="M 827.5 408.5 L 827.5 408.5 L 827.5 0.5" style="stroke:#000000;stroke-opacity:1; stroke-opacity: 0.1; stroke-width: 1; stroke-dasharray: none; stroke-linecap: butt; stroke-linejoin: miter; stroke-miterlimit: 10; fill: none; fill-rule: nonzero; opacity: 1" transform=" matrix(1 0 0 1 82 20) " stroke-linecap="round" /><path d="M 903.5 408.5 L 903.5 408.5 L 903.5 0.5" style="stroke:#000000;stroke-opacity:1; stroke-opacity: 0.1; stroke-width: 1; stroke-dasharray: none; stroke-linecap: butt; stroke-linejoin: miter; stroke-miterlimit: 10; fill: none; fill-rule: nonzero; opacity: 1" transform=" matrix(1 0 0 1 82 20) " stroke-linecap="round" /><path d="M 0.5 408.5 L 0.5 408.5 L 903.5 408.5" style="stroke:#000000;stroke-opacity:1; stroke-opacity: 0.1; stroke-width: 1; stroke-dasharray: none; stroke-linecap: butt; stroke-linejoin: miter; stroke-miterlimit: 10; fill: none; fill-rule: nonzero; opacity: 1" transform=" matrix(1 0 0 1 82 20) " stroke-linecap="round" /><path d="M 0.5 350.5 L 0.5 350.5 L 903.5 350.5" style="stroke:#000000;stroke-opacity:1; stroke-opacity: 0.1; stroke-width: 1; stroke-dasharray: none; stroke-linecap: butt; stroke-linejoin: miter; stroke-miterlimit: 10; fill: none; fill-rule: nonzero; opacity: 1" transform=" matrix(1 0 0 1 82 20) " stroke-linecap="round" /><path d="M 0.5 291.5 L 0.5 291.5 L 903.5 291.5" style="stroke:#000000;stroke-opacity:1; stroke-opacity: 0.1; stroke-width: 1; stroke-dasharray: none; stroke-linecap: butt; stroke-linejoin: miter; stroke-miterlimit: 10; fill: none; fill-rule: nonzero; opacity: 1" transform=" matrix(1 0 0 1 82 20) " stroke-linecap="round" /><path d="M 0.5 233.5 L 0.5 233.5 L 903.5 233.5" style="stroke:#000000;stroke-opacity:1; stroke-opacity: 0.1; stroke-width: 1; stroke-dasharray: none; stroke-linecap: butt; stroke-linejoin: miter; stroke-miterlimit: 10; fill: none; fill-rule: nonzero; opacity: 1" transform=" matrix(1 0 0 1 82 20) " stroke-linecap="round" /><path d="M 0.5 175.5 L 0.5 175.5 L 903.5 175.5" style="stroke:#000000;stroke-opacity:1; stroke-opacity: 0.1; stroke-width: 1; stroke-dasharray: none; stroke-linecap: butt; stroke-linejoin: miter; stroke-miterlimit: 10; fill: none; fill-rule: nonzero; opacity: 1" transform=" matrix(1 0 0 1 82 20) " stroke-linecap="round" /><path d="M 0.5 117.5 L 0.5 117.5 L 903.5 117.5" style="stroke:#000000;stroke-opacity:1; stroke-opacity: 0.1; stroke-width: 1; stroke-dasharray: none; stroke-linecap: butt; stroke-linejoin: miter; stroke-miterlimit: 10; fill: none; fill-rule: nonzero; opacity: 1" transform=" matrix(1 0 0 1 82 20) " stroke-linecap="round" /><path d="M 0.5 58.5 L 0.5 58.5 L 903.5 58.5" style="stroke:#000000;stroke-opacity:1; stroke-opacity: 0.1; stroke-width: 1; stroke-dasharray: none; stroke-linecap: butt; stroke-linejoin: miter; stroke-miterlimit: 10; fill: none; fill-rule: nonzero; opacity: 1" transform=" matrix(1 0 0 1 82 20) " stroke-linecap="round" /><path d="M 0.5 0.5 L 0.5 0.5 L 903.5 0.5" style="stroke:#000000;stroke-opacity:1; stroke-opacity: 0.1; stroke-width: 1; stroke-dasharray: none; stroke-linecap: butt; stroke-linejoin: miter; stroke-miterlimit: 10; fill: none; fill-rule: nonzero; opacity: 1" transform=" matrix(1 0 0 1 82 20) " stroke-linecap="round" /><path d="M 0.5 0.5 L 0.5 -352.5 L 60.5 -352.5 L 60.5 0.5 L 0.5 0.5 Z" style="stroke:#67B7DC;stroke-opacity:1; stroke-opacity: 0.2; stroke-width: 1; stroke-dasharray: none; stroke-linecap: butt; stroke-linejoin: miter; stroke-miterlimit: 10;fill:#FF0F00;fill-opacity:1; fill-opacity: 0.9; fill-rule: nonzero; opacity: 1" transform=" matrix(1 0 0 1 90 428) " stroke-linecap="round" /><path d="M 0.5 0.5 L 0.5 -218.5 L 60.5 -218.5 L 60.5 0.5 L 0.5 0.5 Z" style="stroke:#67B7DC;stroke-opacity:1; stroke-opacity: 0.2; stroke-width: 1; stroke-dasharray: none; stroke-linecap: butt; stroke-linejoin: miter; stroke-miterlimit: 10;fill:#FF6600;fill-opacity:1; fill-opacity: 0.9; fill-rule: nonzero; opacity: 1" transform=" matrix(1 0 0 1 165 428) " stroke-linecap="round" /><path d="M 0.5 0.5 L 0.5 -210.5 L 60.5 -210.5 L 60.5 0.5 L 0.5 0.5 Z" style="stroke:#67B7DC;stroke-opacity:1; stroke-opacity: 0.2; stroke-width: 1; stroke-dasharray: none; stroke-linecap: butt; stroke-linejoin: miter; stroke-miterlimit: 10;fill:#FF9E01;fill-opacity:1; fill-opacity: 0.9; fill-rule: nonzero; opacity: 1" transform=" matrix(1 0 0 1 240 428) " stroke-linecap="round" /><path d="M 0.5 0.5 L 0.5 -153.5 L 60.5 -153.5 L 60.5 0.5 L 0.5 0.5 Z" style="stroke:#67B7DC;stroke-opacity:1; stroke-opacity: 0.2; stroke-width: 1; stroke-dasharray: none; stroke-linecap: butt; stroke-linejoin: miter; stroke-miterlimit: 10;fill:#FCD202;fill-opacity:1; fill-opacity: 0.9; fill-rule: nonzero; opacity: 1" transform=" matrix(1 0 0 1 315 428) " stroke-linecap="round" /><path d="M 0.5 0.5 L 0.5 -130.5 L 60.5 -130.5 L 60.5 0.5 L 0.5 0.5 Z" style="stroke:#67B7DC;stroke-opacity:1; stroke-opacity: 0.2; stroke-width: 1; stroke-dasharray: none; stroke-linecap: butt; stroke-linejoin: miter; stroke-miterlimit: 10;fill:#F8FF01;fill-opacity:1; fill-opacity: 0.9; fill-rule: nonzero; opacity: 1" transform=" matrix(1 0 0 1 391 428) " stroke-linecap="round" /><path d="M 0.5 0.5 L 0.5 -129.5 L 60.5 -129.5 L 60.5 0.5 L 0.5 0.5 Z" style="stroke:#67B7DC;stroke-opacity:1; stroke-opacity: 0.2; stroke-width: 1; stroke-dasharray: none; stroke-linecap: butt; stroke-linejoin: miter; stroke-miterlimit: 10;fill:#B0DE09;fill-opacity:1; fill-opacity: 0.9; fill-rule: nonzero; opacity: 1" transform=" matrix(1 0 0 1 466 428) " stroke-linecap="round" /><path d="M 0.5 0.5 L 0.5 -114.5 L 60.5 -114.5 L 60.5 0.5 L 0.5 0.5 Z" style="stroke:#67B7DC;stroke-opacity:1; stroke-opacity: 0.2; stroke-width: 1; stroke-dasharray: none; stroke-linecap: butt; stroke-linejoin: miter; stroke-miterlimit: 10;fill:#04D215;fill-opacity:1; fill-opacity: 0.9; fill-rule: nonzero; opacity: 1" transform=" matrix(1 0 0 1 541 428) " stroke-linecap="round" /><path d="M 0.5 0.5 L 0.5 -82.5 L 60.5 -82.5 L 60.5 0.5 L 0.5 0.5 Z" style="stroke:#67B7DC;stroke-opacity:1; stroke-opacity: 0.2; stroke-width: 1; stroke-dasharray: none; stroke-linecap: butt; stroke-linejoin: miter; stroke-miterlimit: 10;fill:#0D8ECF;fill-opacity:1; fill-opacity: 0.9; fill-rule: nonzero; opacity: 1" transform=" matrix(1 0 0 1 616 428) " stroke-linecap="round" /><path d="M 0.5 0.5 L 0.5 -77.5 L 60.5 -77.5 L 60.5 0.5 L 0.5 0.5 Z" style="stroke:#67B7DC;stroke-opacity:1; stroke-opacity: 0.2; stroke-width: 1; stroke-dasharray: none; stroke-linecap: butt; stroke-linejoin: miter; stroke-miterlimit: 10;fill:#0D52D1;fill-opacity:1; fill-opacity: 0.9; fill-rule: nonzero; opacity: 1" transform=" matrix(1 0 0 1 692 428) " stroke-linecap="round" /><path d="M 0.5 0.5 L 0.5 -67.5 L 60.5 -67.5 L 60.5 0.5 L 0.5 0.5 Z" style="stroke:#67B7DC;stroke-opacity:1; stroke-opacity: 0.2; stroke-width: 1; stroke-dasharray: none; stroke-linecap: butt; stroke-linejoin: miter; stroke-miterlimit: 10;fill:#2A0CD0;fill-opacity:1; fill-opacity: 0.9; fill-rule: nonzero; opacity: 1" transform=" matrix(1 0 0 1 767 428) " stroke-linecap="round" /><path d="M 0.5 0.5 L 0.5 -51.5 L 60.5 -51.5 L 60.5 0.5 L 0.5 0.5 Z" style="stroke:#67B7DC;stroke-opacity:1; stroke-opacity: 0.2; stroke-width: 1; stroke-dasharray: none; stroke-linecap: butt; stroke-linejoin: miter; stroke-miterlimit: 10;fill:#8A0CCF;fill-opacity:1; fill-opacity: 0.9; fill-rule: nonzero; opacity: 1" transform=" matrix(1 0 0 1 842 428) " stroke-linecap="round" /><path d="M 0.5 0.5 L 0.5 -50.5 L 60.5 -50.5 L 60.5 0.5 L 0.5 0.5 Z" style="stroke:#67B7DC;stroke-opacity:1; stroke-opacity: 0.2; stroke-width: 1; stroke-dasharray: none; stroke-linecap: butt; stroke-linejoin: miter; stroke-miterlimit: 10;fill:#CD0D74;fill-opacity:1; fill-opacity: 0.9; fill-rule: nonzero; opacity: 1" transform=" matrix(1 0 0 1 917 428) " stroke-linecap="round" /><path d="M 0.5 408.5 L 903.5 408.5 L 903.5 408.5" style="stroke:#000000;stroke-opacity:1; stroke-opacity: 0.2; stroke-width: 1; stroke-dasharray: none; stroke-linecap: butt; stroke-linejoin: miter; stroke-miterlimit: 10; fill: none; fill-rule: nonzero; opacity: 1" transform=" matrix(1 0 0 1 82 20) " stroke-linecap="round" /><path d="M 0.5 0.5 L 903.5 0.5" style="stroke:#000000;stroke-opacity:1; stroke-opacity: 0.3; stroke-width: 1; stroke-dasharray: none; stroke-linecap: butt; stroke-linejoin: miter; stroke-miterlimit: 10; fill: none; fill-rule: nonzero; opacity: 1" transform=" matrix(1 0 0 1 82 428) " stroke-linecap="round" /><path d="M 0.5 0.5 L 0.5 408.5" style="stroke:#000000;stroke-opacity:1; stroke-opacity: 0; stroke-width: 1; stroke-dasharray: none; stroke-linecap: butt; stroke-linejoin: miter; stroke-miterlimit: 10; fill: none; fill-rule: nonzero; opacity: 1" transform=" matrix(1 0 0 1 82 20) " stroke-linecap="round" /><g  clip-path="url(#AmChartsEl-4)" ><path d="M 0.5 0.5 L 0.5 0.5 L 0.5 408.5" style="stroke:#000000;stroke-opacity:1; stroke-opacity: 0; stroke-width: 1; stroke-dasharray: none; stroke-linecap: butt; stroke-linejoin: miter; stroke-miterlimit: 10; fill: none; fill-rule: nonzero; opacity: 0" transform=" matrix(1 0 0 1 947 20) " stroke-linecap="round" /></g><g  clip-path="url(#AmChartsEl-4)" ><path d="M 0.5 0.5 L 903.5 0.5 L 903.5 0.5" style="stroke:#000000;stroke-opacity:1; stroke-opacity: 0; stroke-width: 1; stroke-dasharray: none; stroke-linecap: butt; stroke-linejoin: miter; stroke-miterlimit: 10; fill: none; fill-rule: nonzero; opacity: 0" transform=" matrix(1 0 0 1 82 117) " stroke-linecap="round" /></g><g transform=" matrix(0.7071067811865476 -0.7071067811865475 0.7071067811865475 0.7071067811865476 111.29439823414599 444.330601765854) "><text xml:space="preserve" font-family="Verdana" font-size="11" font-weight="normal" style="stroke: none; stroke-width: 1; stroke-dasharray: none; stroke-linecap: butt; stroke-linejoin: miter; stroke-miterlimit: 10;fill:#000000;fill-opacity:1; fill-rule: nonzero; opacity: 1; white-space: pre" ><tspan x="-11.95" y="7.48" fill="rgba(0,0,0,1)">USA</tspan></text></g><g transform=" matrix(0.7071067811865476 -0.7071067811865475 0.7071067811865475 0.7071067811865476 183.58750508741622 447.0374949125838) "><text xml:space="preserve" font-family="Verdana" font-size="11" font-weight="normal" style="stroke: none; stroke-width: 1; stroke-dasharray: none; stroke-linecap: butt; stroke-linejoin: miter; stroke-miterlimit: 10;fill:#000000;fill-opacity:1; fill-rule: nonzero; opacity: 1; white-space: pre" ><tspan x="-16.01" y="7.48" fill="rgba(0,0,0,1)">China</tspan></text></g><g transform=" matrix(0.7071067811865476 -0.7071067811865475 0.7071067811865475 0.7071067811865476 258.3057672292872 447.3192327707128) "><text xml:space="preserve" font-family="Verdana" font-size="11" font-weight="normal" style="stroke: none; stroke-width: 1; stroke-dasharray: none; stroke-linecap: butt; stroke-linejoin: miter; stroke-miterlimit: 10;fill:#000000;fill-opacity:1; fill-rule: nonzero; opacity: 1; white-space: pre" ><tspan x="-16.41" y="7.48" fill="rgba(0,0,0,1)">Japan</tspan></text></g><g transform=" matrix(0.7071067811865476 -0.7071067811865475 0.7071067811865475 0.7071067811865476 326.51091300382274 454.11408699617726) "><text xml:space="preserve" font-family="Verdana" font-size="11" font-weight="normal" style="stroke: none; stroke-width: 1; stroke-dasharray: none; stroke-linecap: butt; stroke-linejoin: miter; stroke-miterlimit: 10;fill:#000000;fill-opacity:1; fill-rule: nonzero; opacity: 1; white-space: pre" ><tspan x="-25.68" y="7.48" fill="rgba(0,0,0,1)">Germany</tspan></text></g><g transform=" matrix(0.7071067811865476 -0.7071067811865475 0.7071067811865475 0.7071067811865476 414.95157293532355 441.67342706467645) "><text xml:space="preserve" font-family="Verdana" font-size="11" font-weight="normal" style="stroke: none; stroke-width: 1; stroke-dasharray: none; stroke-linecap: butt; stroke-linejoin: miter; stroke-miterlimit: 10;fill:#000000;fill-opacity:1; fill-rule: nonzero; opacity: 1; white-space: pre" ><tspan x="-8.24" y="7.48" fill="rgba(0,0,0,1)">UK</tspan></text></g><g transform=" matrix(0.7071067811865476 -0.7071067811865475 0.7071067811865475 0.7071067811865476 482.59324299360105 449.03175700639895) "><text xml:space="preserve" font-family="Verdana" font-size="11" font-weight="normal" style="stroke: none; stroke-width: 1; stroke-dasharray: none; stroke-linecap: butt; stroke-linejoin: miter; stroke-miterlimit: 10;fill:#000000;fill-opacity:1; fill-rule: nonzero; opacity: 1; white-space: pre" ><tspan x="-18.83" y="7.48" fill="rgba(0,0,0,1)">France</tspan></text></g><g transform=" matrix(0.7071067811865476 -0.7071067811865475 0.7071067811865475 0.7071067811865476 560.7034079764762 445.9215920235238) "><text xml:space="preserve" font-family="Verdana" font-size="11" font-weight="normal" style="stroke: none; stroke-width: 1; stroke-dasharray: none; stroke-linecap: butt; stroke-linejoin: miter; stroke-miterlimit: 10;fill:#000000;fill-opacity:1; fill-rule: nonzero; opacity: 1; white-space: pre" ><tspan x="-14.43" y="7.48" fill="rgba(0,0,0,1)">India</tspan></text></g><g transform=" matrix(0.7071067811865476 -0.7071067811865475 0.7071067811865475 0.7071067811865476 634.6814177067926 446.94358229320744) "><text xml:space="preserve" font-family="Verdana" font-size="11" font-weight="normal" style="stroke: none; stroke-width: 1; stroke-dasharray: none; stroke-linecap: butt; stroke-linejoin: miter; stroke-miterlimit: 10;fill:#000000;fill-opacity:1; fill-rule: nonzero; opacity: 1; white-space: pre" ><tspan x="-15.88" y="7.48" fill="rgba(0,0,0,1)">Spain</tspan></text></g><g transform=" matrix(0.7071067811865476 -0.7071067811865475 0.7071067811865475 0.7071067811865476 697.8816801129705 459.74331988702954) "><text xml:space="preserve" font-family="Verdana" font-size="11" font-weight="normal" style="stroke: none; stroke-width: 1; stroke-dasharray: none; stroke-linecap: butt; stroke-linejoin: miter; stroke-miterlimit: 10;fill:#000000;fill-opacity:1; fill-rule: nonzero; opacity: 1; white-space: pre" ><tspan x="-33.65" y="7.48" fill="rgba(0,0,0,1)">Netherlands</tspan></text></g><g transform=" matrix(0.7071067811865476 -0.7071067811865475 0.7071067811865475 0.7071067811865476 784.0075633732025 448.6174366267975) "><text xml:space="preserve" font-family="Verdana" font-size="11" font-weight="normal" style="stroke: none; stroke-width: 1; stroke-dasharray: none; stroke-linecap: butt; stroke-linejoin: miter; stroke-miterlimit: 10;fill:#000000;fill-opacity:1; fill-rule: nonzero; opacity: 1; white-space: pre" ><tspan x="-18.25" y="7.48" fill="rgba(0,0,0,1)">Russia</tspan></text></g><g transform=" matrix(0.7071067811865476 -0.7071067811865475 0.7071067811865475 0.7071067811865476 847.4176412878168 460.20735871218324) "><text xml:space="preserve" font-family="Verdana" font-size="11" font-weight="normal" style="stroke: none; stroke-width: 1; stroke-dasharray: none; stroke-linecap: butt; stroke-linejoin: miter; stroke-miterlimit: 10;fill:#000000;fill-opacity:1; fill-rule: nonzero; opacity: 1; white-space: pre" ><tspan x="-34.64" y="7.48" fill="rgba(0,0,0,1)">South Korea</tspan></text></g><g transform=" matrix(0.7071067811865476 -0.7071067811865475 0.7071067811865475 0.7071067811865476 932.0188255511154 450.60617444888464) "><text xml:space="preserve" font-family="Verdana" font-size="11" font-weight="normal" style="stroke: none; stroke-width: 1; stroke-dasharray: none; stroke-linecap: butt; stroke-linejoin: miter; stroke-miterlimit: 10;fill:#000000;fill-opacity:1; fill-rule: nonzero; opacity: 1; white-space: pre" ><tspan x="-21.06" y="7.48" fill="rgba(0,0,0,1)">Canada</tspan></text></g><g transform=" matrix(1 0 0 1 70 426.703125) "><text xml:space="preserve" font-family="Verdana" font-size="11" font-weight="normal" style="stroke: none; stroke-width: 1; stroke-dasharray: none; stroke-linecap: butt; stroke-linejoin: miter; stroke-miterlimit: 10;fill:#000000;fill-opacity:1; fill-rule: nonzero; opacity: 1; white-space: pre" ><tspan x="-7.89" y="7.48" fill="rgba(0,0,0,1)">0</tspan></text></g><g transform=" matrix(1 0 0 1 70 368.703125) "><text xml:space="preserve" font-family="Verdana" font-size="11" font-weight="normal" style="stroke: none; stroke-width: 1; stroke-dasharray: none; stroke-linecap: butt; stroke-linejoin: miter; stroke-miterlimit: 10;fill:#000000;fill-opacity:1; fill-rule: nonzero; opacity: 1; white-space: pre" ><tspan x="-21.88" y="7.48" fill="rgba(0,0,0,1)">500</tspan></text></g><g transform=" matrix(1 0 0 1 70 309.703125) "><text xml:space="preserve" font-family="Verdana" font-size="11" font-weight="normal" style="stroke: none; stroke-width: 1; stroke-dasharray: none; stroke-linecap: butt; stroke-linejoin: miter; stroke-miterlimit: 10;fill:#000000;fill-opacity:1; fill-rule: nonzero; opacity: 1; white-space: pre" ><tspan x="-32.87" y="7.48" fill="rgba(0,0,0,1)">1,000</tspan></text></g><g transform=" matrix(1 0 0 1 70 251.703125) "><text xml:space="preserve" font-family="Verdana" font-size="11" font-weight="normal" style="stroke: none; stroke-width: 1; stroke-dasharray: none; stroke-linecap: butt; stroke-linejoin: miter; stroke-miterlimit: 10;fill:#000000;fill-opacity:1; fill-rule: nonzero; opacity: 1; white-space: pre" ><tspan x="-32.87" y="7.48" fill="rgba(0,0,0,1)">1,500</tspan></text></g><g transform=" matrix(1 0 0 1 70 193.703125) "><text xml:space="preserve" font-family="Verdana" font-size="11" font-weight="normal" style="stroke: none; stroke-width: 1; stroke-dasharray: none; stroke-linecap: butt; stroke-linejoin: miter; stroke-miterlimit: 10;fill:#000000;fill-opacity:1; fill-rule: nonzero; opacity: 1; white-space: pre" ><tspan x="-32.87" y="7.48" fill="rgba(0,0,0,1)">2,000</tspan></text></g><g transform=" matrix(1 0 0 1 70 135.703125) "><text xml:space="preserve" font-family="Verdana" font-size="11" font-weight="normal" style="stroke: none; stroke-width: 1; stroke-dasharray: none; stroke-linecap: butt; stroke-linejoin: miter; stroke-miterlimit: 10;fill:#000000;fill-opacity:1; fill-rule: nonzero; opacity: 1; white-space: pre" ><tspan x="-32.87" y="7.48" fill="rgba(0,0,0,1)">2,500</tspan></text></g><g transform=" matrix(1 0 0 1 70 76.703125) "><text xml:space="preserve" font-family="Verdana" font-size="11" font-weight="normal" style="stroke: none; stroke-width: 1; stroke-dasharray: none; stroke-linecap: butt; stroke-linejoin: miter; stroke-miterlimit: 10;fill:#000000;fill-opacity:1; fill-rule: nonzero; opacity: 1; white-space: pre" ><tspan x="-32.87" y="7.48" fill="rgba(0,0,0,1)">3,000</tspan></text></g><g transform=" matrix(1 0 0 1 70 18.703125) "><text xml:space="preserve" font-family="Verdana" font-size="11" font-weight="normal" style="stroke: none; stroke-width: 1; stroke-dasharray: none; stroke-linecap: butt; stroke-linejoin: miter; stroke-miterlimit: 10;fill:#000000;fill-opacity:1; fill-rule: nonzero; opacity: 1; white-space: pre" ><tspan x="-32.87" y="7.48" fill="rgba(0,0,0,1)">3,500</tspan></text></g><g transform=" matrix(6.123233995736766e-17 -1 1 6.123233995736766e-17 21 224) "><text xml:space="preserve" font-family="Verdana" font-size="12" font-weight="bold" style="stroke: none; stroke-width: 1; stroke-dasharray: none; stroke-linecap: butt; stroke-linejoin: miter; stroke-miterlimit: 10;fill:#000000;fill-opacity:1; fill-rule: nonzero; opacity: 1; white-space: pre" ><tspan x="-71.94" y="7.66" fill="rgba(0,0,0,1)">Visitors from country</tspan></text></g></g><clipPath xmlns="http://www.w3.org/2000/svg" id="AmChartsEl-4"><rect x="0" y="0" width="903" height="408" rx="0" ry="0" stroke-width="0" fill="none" fill-opacity="0"/></clipPath></svg>